<svg xmlns="http://www.w3.org/2000/svg" viewBox="0 0 1600 900" role="img" aria-labelledby="title desc">
  <title id="title">Faisal Fareed Woods screenshot placeholder</title>
  <desc id="desc">A browser-style preview for the Faisal Fareed Woods business website.</desc>
  <rect width="1600" height="900" fill="#1f2937"/>
  <rect x="110" y="90" width="1380" height="720" rx="34" fill="#f8fafc"/>
  <rect x="110" y="90" width="1380" height="82" rx="34" fill="#e5e7eb"/>
  <circle cx="166" cy="131" r="14" fill="#ef4444"/>
  <circle cx="210" cy="131" r="14" fill="#f59e0b"/>
  <circle cx="254" cy="131" r="14" fill="#22c55e"/>
  <rect x="210" y="238" width="540" height="74" rx="18" fill="#92400e"/>
  <rect x="210" y="360" width="610" height="26" rx="13" fill="#475569"/>
  <rect x="210" y="416" width="500" height="22" rx="11" fill="#94a3b8"/>
  <rect x="210" y="500" width="250" height="62" rx="18" fill="#b45309"/>
  <rect x="880" y="230" width="360" height="460" rx="28" fill="#fef3c7"/>
  <rect x="936" y="312" width="248" height="54" rx="10" fill="#92400e"/>
  <rect x="936" y="396" width="248" height="54" rx="10" fill="#b45309"/>
  <rect x="936" y="480" width="248" height="54" rx="10" fill="#d97706"/>
  <rect x="936" y="564" width="248" height="54" rx="10" fill="#f59e0b"/>
  <text x="210" y="706" fill="#0f172a" font-family="Arial, sans-serif" font-size="62" font-weight="700">Faisal Fareed Woods</text>
</svg>
