<svg xmlns="http://www.w3.org/2000/svg" viewBox="0 0 1600 900" role="img" aria-labelledby="title desc">
  <title id="title">Law Surface screenshot placeholder</title>
  <desc id="desc">A browser-style preview for the Law Surface project.</desc>
  <rect width="1600" height="900" fill="#111827"/>
  <rect x="120" y="100" width="1360" height="700" rx="36" fill="#f8fafc"/>
  <rect x="120" y="100" width="1360" height="78" rx="36" fill="#e5e7eb"/>
  <circle cx="176" cy="139" r="14" fill="#ef4444"/>
  <circle cx="220" cy="139" r="14" fill="#f59e0b"/>
  <circle cx="264" cy="139" r="14" fill="#22c55e"/>
  <rect x="210" y="250" width="500" height="70" rx="16" fill="#1e3a8a"/>
  <rect x="210" y="374" width="410" height="22" rx="11" fill="#475569"/>
  <rect x="210" y="426" width="560" height="22" rx="11" fill="#94a3b8"/>
  <rect x="210" y="510" width="280" height="64" rx="18" fill="#2563eb"/>
  <rect x="890" y="246" width="380" height="440" rx="28" fill="#dbeafe"/>
  <rect x="950" y="310" width="260" height="44" rx="22" fill="#1e3a8a"/>
  <rect x="950" y="414" width="260" height="22" rx="11" fill="#64748b"/>
  <rect x="950" y="466" width="210" height="22" rx="11" fill="#94a3b8"/>
  <text x="210" y="704" fill="#0f172a" font-family="Arial, sans-serif" font-size="68" font-weight="700">Law Surface</text>
</svg>
